HIERARCHY
ROOT Pelvis
{
	OFFSET 0.000000 0.000000 0.000000
	CHANNELS 6 Xposition Yposition Zposition Zrotation Yrotation Xrotation 
	JOINT Left_hip
	{
		OFFSET 0.069463 -0.088608 -0.009542
		CHANNELS 3 Zrotation Yrotation Xrotation
		JOINT Left_knee
		{
			OFFSET 0.030639 -0.359740 -0.005288
			CHANNELS 3 Zrotation Yrotation Xrotation
			JOINT Left_ankle
			{
				OFFSET -0.011068 -0.376034 -0.042462
				CHANNELS 3 Zrotation Yrotation Xrotation
				JOINT Left_foot
				{
					OFFSET 0.023192 -0.053321 0.111332
					CHANNELS 3 Zrotation Yrotation Xrotation
					End Site
					{
						OFFSET 0.000000 0.000000 0.000000
					}
				}
			}
		}
	}
	JOINT Right_hip
	{
		OFFSET -0.067438 -0.088025 -0.006263
		CHANNELS 3 Zrotation Yrotation Xrotation
		JOINT Right_knee
		{
			OFFSET -0.035962 -0.366229 -0.008063
			CHANNELS 3 Zrotation Yrotation Xrotation
			JOINT Right_ankle
			{
				OFFSET 0.013608 -0.375719 -0.040481
				CHANNELS 3 Zrotation Yrotation Xrotation
				JOINT Right_foot
				{
					OFFSET -0.021034 -0.045527 0.114617
					CHANNELS 3 Zrotation Yrotation Xrotation
					End Site
					{
						OFFSET 0.000000 0.000000 0.000000
					}
				}
			}
		}
	}
	JOINT Spine1
	{
		OFFSET -0.002610 0.101823 -0.019986
		CHANNELS 3 Zrotation Yrotation Xrotation
		JOINT Spine2
		{
			OFFSET 0.004114 0.128714 -0.000938
			CHANNELS 3 Zrotation Yrotation Xrotation
			JOINT Spine3
			{
				OFFSET 0.002191 0.048470 0.027684
				CHANNELS 3 Zrotation Yrotation Xrotation
				JOINT Neck
				{
					OFFSET -0.002856 0.198873 -0.044022
					CHANNELS 3 Zrotation Yrotation Xrotation
					JOINT Head
					{
						OFFSET 0.002981 0.062960 0.049860
						CHANNELS 3 Zrotation Yrotation Xrotation
						End Site
						{
							OFFSET 0.000000 0.000000 0.000000
						}
					}
				}
				JOINT Left_collar
				{
					OFFSET 0.073708 0.112550 -0.033440
					CHANNELS 3 Zrotation Yrotation Xrotation
					JOINT Left_shoulder
					{
						OFFSET 0.083291 0.030786 -0.008013
						CHANNELS 3 Zrotation Yrotation Xrotation
						JOINT Left_elbow
						{
							OFFSET 0.245601 -0.011792 -0.027873
							CHANNELS 3 Zrotation Yrotation Xrotation
							JOINT Left_wrist
							{
								OFFSET 0.232258 0.008622 -0.000487
								CHANNELS 3 Zrotation Yrotation Xrotation
								JOINT Left_palm
								{
									OFFSET 0.077300 -0.009457 -0.012851
									CHANNELS 3 Zrotation Yrotation Xrotation
									End Site
									{
										OFFSET 0.000000 0.000000 0.000000
									}
								}
							}
						}
					}
				}
				JOINT Right_collar
				{
					OFFSET -0.075339 0.110574 -0.037874
					CHANNELS 3 Zrotation Yrotation Xrotation
					JOINT Right_shoulder
					{
						OFFSET -0.086522 0.031207 -0.009986
						CHANNELS 3 Zrotation Yrotation Xrotation
						JOINT Right_elbow
						{
							OFFSET -0.237313 -0.011478 -0.019859
							CHANNELS 3 Zrotation Yrotation Xrotation
							JOINT Right_wrist
							{
								OFFSET -0.237599 0.007976 -0.003742
								CHANNELS 3 Zrotation Yrotation Xrotation
								JOINT Right_palm
								{
									OFFSET -0.076920 -0.006943 -0.009920
									CHANNELS 3 Zrotation Yrotation Xrotation
									End Site
									{
										OFFSET 0.000000 0.000000 0.000000
									}
								}
							}
						}
					}
				}
			}
		}
	}
}
MOTION
Frames: 8
Frame Time: 0.100000
-0.431279 -0.152788 0.782356 149.128940 67.227883 -47.303818 9.106968 1.247908 -7.271960 1.461699 -1.655374 30.285607 -4.790122 2.899646 -0.695756 0.167987 17.270702 -11.875910 2.860131 -5.657878 10.341408 -0.902667 -7.830696 5.984296 -6.381831 -2.224746 -5.919941 12.631098 -15.347681 -0.641038 2.651158 0.308955 25.296049 1.089155 -4.812817 5.367982 3.507865 -2.912312 -2.024675 4.377194 -17.436609 -4.577332 8.712985 -10.935787 -11.989814 -20.524323 0.538802 1.454694 -60.511372 -17.828360 2.537169 144.485050 -35.743410 -110.694563 20.884723 -0.993274 -35.181342 -5.361622 -1.818900 6.806747 11.931718 6.829877 -6.018705 59.390644 12.226057 7.834448 -147.244721 27.455678 -114.024991 -27.931806 5.957697 -18.590545 11.563304 8.135914 2.957418 
-0.414423 -0.150800 0.762510 149.942628 67.289862 -42.255560 8.482843 0.095462 -10.343020 1.133060 -2.427381 30.411465 -4.089023 2.665298 -1.685321 -0.094596 16.498959 -11.484809 2.194570 -4.449245 4.176742 -0.798514 -8.234511 5.976731 -4.468373 -2.111388 -4.456393 10.083542 -14.950434 0.224518 2.837400 0.030128 25.875898 1.523710 -4.235230 3.304781 3.676529 -2.734603 -2.251662 4.699706 -17.220162 -6.367903 8.940620 -11.404091 -11.700413 -19.272909 1.314302 0.566046 -58.527660 -18.291981 2.031052 144.597634 -34.894051 -111.095023 18.936205 -2.382893 -35.784562 -5.764357 -1.756450 7.052537 11.324103 5.663711 -6.653546 56.650328 12.697291 6.132234 -145.420699 26.026835 -112.957959 -25.539979 6.240026 -19.496298 11.364076 7.985611 3.306204 
-0.419137 -0.149588 0.739948 151.688705 66.340050 -39.540257 8.266748 0.356785 -6.324082 0.742508 -4.018925 28.681089 -3.906542 2.780041 -3.069852 0.155860 15.571481 -10.573471 0.675485 -4.045451 2.998048 -0.571759 -7.679870 4.982452 -2.727380 -2.000842 -3.073385 7.911807 -13.750751 0.672880 2.793430 -0.158501 23.543439 1.527762 -3.978189 3.260857 3.306351 -2.518706 -2.672700 4.133284 -16.691678 -5.486492 7.980369 -12.005348 -9.635714 -18.992667 0.264696 0.996509 -57.022388 -18.359507 1.394918 134.035730 -40.064043 -104.726250 14.267080 -3.008854 -36.427069 -6.444313 -1.776649 6.358278 12.004150 6.610590 -6.066531 56.585258 13.505165 6.044580 -138.620135 28.614048 -109.354701 -21.610197 5.353741 -21.176714 11.723482 8.044799 2.775970 
-0.443873 -0.146833 0.714507 152.648457 65.361244 -41.575566 8.308093 1.630092 5.546769 -0.178158 -8.798127 19.174233 -4.750458 2.539712 -5.712575 0.843174 13.489141 -7.797950 -1.965298 -4.110536 6.541873 0.070785 -6.236749 5.325473 -2.029403 -3.987382 -3.542772 8.104636 -9.247610 3.491016 2.164345 -0.995827 18.081843 1.402751 -4.302064 4.100382 2.090816 -3.085238 -2.939600 2.863478 -15.066282 0.760146 3.345709 -13.861456 0.969060 -21.589366 -2.803031 1.755618 -50.774229 -20.962966 0.144233 93.471695 -45.748984 -80.709443 6.290658 -3.227001 -41.794762 -5.717053 -0.987608 6.554939 16.732709 9.053157 -5.261897 53.265084 16.065395 7.294274 -109.007934 36.362450 -95.953900 -11.682637 2.390082 -32.579997 10.024986 6.989019 3.694411 
-0.468993 -0.143788 0.674372 152.374678 66.025615 -46.806277 7.437262 4.788744 17.691004 -1.014364 -9.775428 7.617927 -4.206858 3.275599 -6.783204 -0.260672 12.273714 -5.644194 -6.000818 -4.711585 10.371888 0.041569 -4.678043 8.741014 0.165425 -7.381508 -2.513845 7.652748 -2.021875 5.258959 1.063493 -2.230200 13.170208 0.812240 -4.442909 5.263074 0.418776 -3.950132 -2.088027 1.414039 -14.572995 10.331001 -2.552448 -15.107770 15.417251 -21.241351 -5.331512 1.262455 -40.705203 -26.017221 -2.712706 63.233149 -42.798103 -65.658155 0.403727 -4.944533 -46.196705 -3.594004 0.150416 8.099362 18.578964 10.764017 -6.210723 43.675368 20.855403 4.797952 -73.109959 34.597318 -80.348679 -4.157779 0.821889 -40.244482 7.683370 5.600223 4.822076 
-0.464815 -0.128054 0.622841 153.827182 65.143750 -46.090048 4.478472 4.741804 18.299280 -1.469590 -9.492619 6.035270 -0.928606 3.656867 -8.212819 -2.364034 13.766493 -6.724639 -8.489461 -4.089292 5.142398 -0.809670 -4.450695 16.057150 2.660434 -7.552824 -0.633245 5.698650 -0.685456 2.899469 1.214290 -2.754592 13.046126 1.011915 -3.264894 5.226029 0.166259 -3.727122 -1.277255 0.757943 -15.172701 13.093532 -4.038724 -14.708642 18.593197 -18.288256 -4.654698 0.282279 -41.355698 -29.260697 -1.192289 82.759377 -48.592476 -78.805911 -0.533047 -7.220823 -46.801266 -2.681443 0.736281 10.650334 15.780166 9.849809 -6.978201 41.524159 21.868276 5.247131 -85.272380 38.392912 -86.833991 -1.968771 2.554033 -36.110610 6.178444 5.528793 5.771280 
-0.424949 -0.102624 0.579855 154.201708 63.701441 -41.800205 1.549645 1.228827 0.631710 -3.848515 -6.319789 24.667338 2.713535 5.724674 -10.791804 -3.414744 15.139352 -9.899141 -7.588586 -2.059357 -12.202625 -0.441697 -3.828965 37.491694 3.505247 -8.659364 -4.302604 1.620865 -0.374230 -0.958009 1.605240 -2.976639 19.279723 2.019479 -2.204680 0.921521 0.766199 -2.990672 -0.567698 2.334707 -15.377362 5.153825 -1.185308 -15.319817 11.498278 -12.566657 -5.414437 -2.755823 -37.993814 -30.633896 -4.146996 89.395628 -47.436656 -84.597658 -0.862962 -6.063103 -46.837693 -2.271332 0.868567 11.284400 9.790242 10.163856 -9.328086 39.786490 22.956451 3.626730 -95.298266 36.789748 -93.423230 -1.509732 2.351335 -35.322848 4.738606 5.462683 5.922478 
-0.395077 -0.085590 0.559059 150.064206 64.595428 -41.314937 1.456944 -1.477611 -9.674868 -4.144050 -5.338175 30.205113 3.407015 6.090754 -11.760989 -2.261379 15.218882 -10.304331 -5.959973 -1.589110 -20.383596 -0.819843 -6.603179 50.897183 2.705755 -9.765263 -8.010553 1.249911 -1.348984 -1.580376 0.865758 -2.943985 21.662918 3.308399 -2.255036 -1.733367 1.706282 -3.118897 -1.276682 5.171754 -15.033620 -2.784114 1.428549 -16.684203 5.311441 -10.364706 -5.687301 -3.979407 -36.185782 -30.258964 -3.756405 108.205668 -46.136972 -98.600536 -0.496436 -6.620652 -47.114433 -1.856558 1.034872 11.064376 8.099364 10.060524 -10.850483 38.508333 22.763283 2.739027 -105.459251 34.305258 -99.536329 -1.180702 3.196797 -35.718055 3.257874 5.136958 6.877205 
